<svg width="1101" height="234" viewBox="0 0 1101 234" fill="none" xmlns="http://www.w3.org/2000/svg">
<path d="M49.7822 182.407C40.3384 182.407 31.839 180.788 24.284 177.551C16.729 174.179 10.7929 169.458 6.47573 163.388C2.15858 157.318 0 150.237 0 142.144H24.6887C25.2284 148.214 27.5893 153.204 31.7715 157.116C36.0887 161.028 42.0922 162.984 49.7822 162.984C57.7419 162.984 63.9478 161.095 68.3999 157.318C72.8519 153.407 75.078 148.416 75.078 142.346C75.078 137.625 73.6614 133.781 70.8283 130.814C68.1301 127.846 64.6898 125.553 60.5076 123.935C56.4603 122.316 50.794 120.563 43.5088 118.674C34.3349 116.246 26.8473 113.818 21.0461 111.39C15.3799 108.828 10.5231 104.916 6.47573 99.6555C2.4284 94.3951 0.404733 87.3811 0.404733 78.6136C0.404733 70.5206 2.4284 63.4392 6.47573 57.3694C10.5231 51.2996 16.1893 46.6461 23.4745 43.4089C30.7597 40.1717 39.1917 38.5531 48.7703 38.5531C62.3963 38.5531 73.5265 41.9926 82.1608 48.8717C90.93 55.6159 95.7868 64.9229 96.7312 76.7927H71.233C70.8283 71.6671 68.3999 67.2834 63.9478 63.6415C59.4958 59.9996 53.6271 58.1787 46.3419 58.1787C39.7313 58.1787 34.3349 59.8648 30.1526 63.2369C25.9704 66.609 23.8793 71.4648 23.8793 77.8043C23.8793 82.1206 25.1609 85.695 27.7242 88.5276C30.4224 91.2253 33.7952 93.3834 37.8425 95.002C41.8899 96.6207 47.4212 98.3741 54.4366 100.263C63.7455 102.825 71.3005 105.388 77.1016 107.951C83.0377 110.514 88.0294 114.493 92.0768 119.888C96.259 125.149 98.3501 132.23 98.3501 141.132C98.3501 148.281 96.3939 155.025 92.4815 161.365C88.704 167.705 83.1052 172.83 75.6851 176.742C68.3999 180.518 59.7656 182.407 49.7822 182.407Z" fill="white"/>
<path d="M148.641 85.8974C152.554 80.7718 157.883 76.4555 164.628 72.9485C171.374 69.4415 178.996 67.688 187.496 67.688C197.209 67.688 206.046 70.1159 214.006 74.9718C222.1 79.6927 228.441 86.3695 233.028 95.002C237.615 103.635 239.909 113.549 239.909 124.744C239.909 135.939 237.615 145.988 233.028 154.891C228.441 163.658 222.1 170.537 214.006 175.528C206.046 180.384 197.209 182.812 187.496 182.812C178.996 182.812 171.441 181.125 164.831 177.753C158.22 174.246 152.824 169.93 148.641 164.804V234H125.572V69.509H148.641V85.8974ZM216.434 124.744C216.434 117.056 214.815 110.446 211.577 104.916C208.474 99.2509 204.292 95.002 199.031 92.1695C193.904 89.202 188.373 87.7183 182.437 87.7183C176.635 87.7183 171.104 89.202 165.843 92.1695C160.716 95.1369 156.534 99.4532 153.296 105.118C150.193 110.783 148.641 117.46 148.641 125.149C148.641 132.837 150.193 139.581 153.296 145.381C156.534 151.046 160.716 155.363 165.843 158.33C171.104 161.298 176.635 162.781 182.437 162.781C188.373 162.781 193.904 161.298 199.031 158.33C204.292 155.228 208.474 150.777 211.577 144.977C214.815 139.177 216.434 132.432 216.434 124.744Z" fill="white"/>
<path d="M255.032 124.744C255.032 113.549 257.326 103.635 261.913 95.002C266.635 86.3695 272.976 79.6927 280.935 74.9718C289.03 70.1159 297.934 67.688 307.648 67.688C316.417 67.688 324.039 69.4415 330.515 72.9485C337.126 76.3206 342.387 80.5695 346.3 85.6951V69.509H369.572V125.25V180.991H346.3V164.4C342.387 169.66 337.058 174.044 330.313 177.551C323.567 181.058 315.877 182.812 307.243 182.812C297.664 182.812 288.895 180.384 280.935 175.528C272.976 170.537 266.635 163.658 261.913 154.891C257.326 145.988 255.032 135.939 255.032 124.744ZM346.3 125.149C346.3 117.46 344.681 110.783 341.443 105.118C338.34 99.4532 334.225 95.1369 329.099 92.1695C323.972 89.202 318.441 87.7183 312.504 87.7183C306.568 87.7183 301.037 89.202 295.91 92.1695C290.784 95.002 286.602 99.2509 283.364 104.916C280.261 110.446 278.709 117.056 278.709 124.744C278.709 132.432 280.261 139.177 283.364 144.977C286.602 150.777 290.784 155.228 295.91 158.33C301.172 161.298 306.703 162.781 312.504 162.781C318.441 162.781 323.972 161.298 329.099 158.33C334.225 155.363 338.34 151.046 341.443 145.381C344.681 139.581 346.3 132.837 346.3 125.149Z" fill="white"/>
<path d="M619.38 122.518C619.38 126.7 619.11 130.477 618.57 133.849H533.374C534.048 142.751 537.354 149.9 543.29 155.295C549.226 160.691 556.511 163.388 565.145 163.388C577.557 163.388 586.326 158.195 591.453 147.809H616.344C612.971 158.06 606.833 166.491 597.929 173.1C589.16 179.574 578.232 182.812 565.145 182.812C554.487 182.812 544.909 180.451 536.409 175.73C528.045 170.874 521.434 164.13 516.577 155.498C511.856 146.73 509.495 136.614 509.495 125.149C509.495 113.683 511.788 103.635 516.375 95.002C521.097 86.2346 527.64 79.4904 536.005 74.7694C544.504 70.0485 554.218 67.688 565.145 67.688C575.668 67.688 585.045 69.9811 593.274 74.5671C601.504 79.1532 607.912 85.6276 612.499 93.9904C617.086 102.218 619.38 111.728 619.38 122.518ZM595.298 115.235C595.163 106.737 592.128 99.9253 586.191 94.7997C580.255 89.6741 572.903 87.1113 564.134 87.1113C556.174 87.1113 549.361 89.6741 543.695 94.7997C538.028 99.7904 534.655 106.602 533.576 115.235H595.298Z" fill="white"/>
<path d="M791.834 69.509L757.229 180.991H732.945L710.482 98.6439L688.02 180.991H663.736L628.929 69.509H652.403L675.675 159.139L699.352 69.509H723.434L746.099 158.735L769.169 69.509H791.834Z" fill="white"/>
<path d="M820.812 54.7392C816.629 54.7392 813.122 53.3229 810.289 50.4903C807.456 47.6578 806.039 44.1508 806.039 39.9694C806.039 35.788 807.456 32.281 810.289 29.4484C813.122 26.6159 816.629 25.1996 820.812 25.1996C824.859 25.1996 828.299 26.6159 831.132 29.4484C833.966 32.281 835.382 35.788 835.382 39.9694C835.382 44.1508 833.966 47.6578 831.132 50.4903C828.299 53.3229 824.859 54.7392 820.812 54.7392ZM832.144 69.509V180.991H809.074V69.509H832.144Z" fill="white"/>
<path d="M918.691 67.688C927.46 67.688 935.285 69.509 942.165 73.1508C949.181 76.7927 954.644 82.1881 958.557 89.3369C962.469 96.4858 964.426 105.118 964.426 115.235V180.991H941.558V118.674C941.558 108.693 939.062 101.072 934.071 95.8113C929.079 90.416 922.266 87.7183 913.632 87.7183C904.997 87.7183 898.117 90.416 892.99 95.8113C887.998 101.072 885.503 108.693 885.503 118.674V180.991H862.433V69.509H885.503V82.2555C889.28 77.6695 894.07 74.095 899.871 71.5322C905.807 68.9694 912.08 67.688 918.691 67.688Z" fill="white"/>
<path d="M986.163 124.744C986.163 113.549 988.456 103.635 993.043 95.002C997.765 86.3695 1004.11 79.6927 1012.07 74.9718C1020.16 70.1159 1029.13 67.688 1038.98 67.688C1046.27 67.688 1053.42 69.3066 1060.43 72.5439C1067.58 75.6462 1073.25 79.8276 1077.43 85.0881V31.2694H1100.7V180.991H1077.43V164.198C1073.65 169.593 1068.39 174.044 1061.65 177.551C1055.03 181.058 1047.41 182.812 1038.78 182.812C1029.06 182.812 1020.16 180.384 1012.07 175.528C1004.11 170.537 997.765 163.658 993.043 154.891C988.456 145.988 986.163 135.939 986.163 124.744ZM1077.43 125.149C1077.43 117.46 1075.81 110.783 1072.57 105.118C1069.47 99.4532 1065.36 95.1369 1060.23 92.1695C1055.1 89.202 1049.57 87.7183 1043.63 87.7183C1037.7 87.7183 1032.17 89.202 1027.04 92.1695C1021.91 95.002 1017.73 99.2509 1014.49 104.916C1011.39 110.446 1009.84 117.056 1009.84 124.744C1009.84 132.432 1011.39 139.177 1014.49 144.977C1017.73 150.777 1021.91 155.228 1027.04 158.33C1032.3 161.298 1037.83 162.781 1043.63 162.781C1049.57 162.781 1055.1 161.298 1060.23 158.33C1065.36 155.363 1069.47 151.046 1072.57 145.381C1075.81 139.581 1077.43 132.837 1077.43 125.149Z" fill="white"/>
<path d="M502.65 45.8975L503.742 52.8405L510.3 53.9975L503.742 55.1544L502.65 62.0975L501.557 55.1544L495 53.9975L501.557 52.8405L502.65 45.8975Z" fill="white"/>
<path d="M494.097 16.2018L495.254 22.7591L502.197 23.8518L495.254 24.9445L494.097 31.5018L492.94 24.9445L485.997 23.8518L492.94 22.7591L494.097 16.2018Z" fill="white"/>
<path d="M445.056 0L448.205 19.2862L467.106 22.5L448.205 25.7138L445.056 45.0001L441.906 25.7138L423.006 22.5L441.906 19.2862L445.056 0Z" fill="white"/>
<path d="M403.201 36.0027L405.643 50.6602L420.301 53.1027L405.643 55.5452L403.201 70.2028L400.758 55.5452L386.101 53.1027L400.758 50.6602L403.201 36.0027Z" fill="white"/>
<path fill-rule="evenodd" clip-rule="evenodd" d="M480.318 69.6076C478.569 69.5563 476.802 69.591 475.021 69.7155C445.903 71.75 423.947 97.0042 425.982 126.122C428.016 155.24 453.27 177.196 482.388 175.161C491.211 174.545 499.375 171.797 506.414 167.456C495.496 182.375 478.323 192.565 458.436 193.954C422.599 196.458 391.517 169.436 389.013 133.599C386.508 97.7611 413.531 66.679 449.368 64.175C460.361 63.4068 470.907 65.417 480.318 69.6076Z" fill="white"/>
</svg>
